<svg xmlns="http://www.w3.org/2000/svg" viewBox="0 0 245 240" width="64" height="64">
  <path fill="#5865F2" d="M104.4 102.9c-5.7 0-10.2 5-10.2 11.1 0 6.2 4.6 11.1 10.2 11.1 5.7 0 10.3-5 10.2-11.1 0-6.1-4.6-11.1-10.2-11.1zm36.2 0c-5.7 0-10.2 5-10.2 11.1 0 6.2 4.6 11.1 10.2 11.1s10.3-5 10.2-11.1c0-6.1-4.5-11.1-10.2-11.1z"/>
  <path fill="#5865F2" d="M189.5 20H55.5C39.7 20 26.9 32.9 26.9 48.6v140.7c0 15.7 12.8 28.6 28.6 28.6H189c15.8 0 28.6-12.9 28.6-28.6V48.6c.1-15.7-12.7-28.6-28.5-28.6z"/>
</svg>